# xmcd
#
# Track frame offsets: 
#        150
#        16097
#        33881
#        50515
#        68339
#        82925
#        101187
#        117792
#        134508
#        150628
#        165950
#        183095
#        206908
#        223269
#
# Disc length: 3206 seconds
#
# Revision: 0
# Processed by: cddbd v1.5.2PL0 Copyright (c) Steve Scherf et al.
# Submitted via: ExactAudioCopy v0.99pb5
#
DISCID=b10c840e
DTITLE=Elliott Yamin - Fight for Love
DYEAR=2009
DGENRE=Blues
TTITLE0=Let Love Be
TTITLE1=Know Better
TTITLE2=Fight for Love
TTITLE3=You
TTITLE4=Can't Keep on Loving You
TTITLE5=Don't Be Afraid
TTITLE6=You Say
TTITLE7=Apart from Me
TTITLE8=Cold Heart
TTITLE9=How Do I Know
TTITLE10=This Step Alone
TTITLE11=Someday
TTITLE12=Always
TTITLE13=Good Outweigh the Bad
EXTD=
EXTT0=
EXTT1=
EXTT2=
EXTT3=
EXTT4=
EXTT5=
EXTT6=
EXTT7=
EXTT8=
EXTT9=
EXTT10=
EXTT11=
EXTT12=
EXTT13=
PLAYORDER=
